REM DIRINDEX 1
REM DIRNAME folder01
TITLE ""
FILE "Disk1Track06.mp3" MP3
  TRACK 01 AUDIO
    TITLE "1:cjc069_0042"
    INDEX 01 00:00:00
  TRACK 02 AUDIO
    TITLE "1:cjc069_0043"
    INDEX 01 00:11:07
  TRACK 03 AUDIO
    TITLE "1:cjc069_0044"
    INDEX 01 00:19:65
  TRACK 04 AUDIO
    TITLE "1:cjc069_0045"
    INDEX 01 00:25:11
  TRACK 05 AUDIO
    TITLE "1:cjc069_0046"
    INDEX 01 00:34:24
  TRACK 06 AUDIO
    TITLE "0:"
    INDEX 01 00:37:67
